# xmcd CD database file
#
# Track frame offsets:
#	150
#	11685
#	24503
#	37654
#	48326
#	60475
#	72150
#	84104
#	98537
#	113026
#	125788
#	138968
#	152928
#	165355
#	179510
#	194083
#	208878
#	223646
#	235962
#	250702
#
# Disc length: 3531 seconds
#
# Revision: 1
# Processed by: cddbd v1.5.1PL2 Copyright (c) Steve Scherf et al.
# Submitted via: CDex 1.51
#
DISCID=0d0dc914
DTITLE=Django Reinhardt - 10 Jazz Legends Vol 1 CD 3
DYEAR=1900
DGENRE=Jazz
TTITLE0=Dinah
TTITLE1=Oh ! Lady, be good
TTITLE2=Djangology
TTITLE3=Swing Guitars
TTITLE4=Sweet Chorus
TTITLE5=Tears
TTITLE6=St Louis Blues
TTITLE7=Minor Swing
TTITLE8=Viper's Dream
TTITLE9=Tea for Two
TTITLE10=My Sweet
TTITLE11=Daphné
TTITLE12=Stockholm
TTITLE13=The man I love
TTITLE14=Swing 39
TTITLE15=Nuages
TTITLE16=Manoir de mes rêves
TTITLE17=Echoes of France
TTITLE18=September Song
TTITLE19=Lover Man
EXTD=
EXTT0=
EXTT1=
EXTT2=
EXTT3=
EXTT4=
EXTT5=
EXTT6=
EXTT7=
EXTT8=
EXTT9=
EXTT10=
EXTT11=
EXTT12=
EXTT13=
EXTT14=
EXTT15=
EXTT16=
EXTT17=
EXTT18=
EXTT19=
PLAYORDER=
